<svg class="bi bi-tabl" width="24" height="24" fill="orangered" version="1.1" viewBox="0 0 24 24" xmlns="http://www.w3.org/2000/svg">
 <g transform="matrix(.43487 0 0 .43487 -1.8403 -1.438)" data-name="Table">
  <path d="m54.64 12.84h-45.28c-1.3034 0-2.36 1.0566-2.36 2.36v2.8c0 1.3034 1.0566 2.36 2.36 2.36h8.24l10.34 10.32-15.59 15.58c-2.7067 2.7133 1.3633 6.7733 4.07 4.06l15.58-15.58 15.58 15.58c2.7067 2.7133 6.7767-1.3467 4.07-4.06l-15.58-15.58 10.33-10.34h8.24c1.2956 4.7e-5 2.349-1.0444 2.36-2.34v-2.8c0-1.3034-1.0566-2.36-2.36-2.36zm-34.21 7.5h2.47l7.69 7.66-1.24 1.24zm11.57 6.27-6.27-6.27h12.54zm18.23 21.06c0.82667 0.82-0.40333 2.06-1.23 1.24l-15.59-15.58 1.24-1.24zm-18.94-15.05-16.29 16.29c-0.82667 0.82-2.0567-0.42-1.23-1.24l27.33-27.33h2.47zm22.981-15.349c0 0.19882-0.16118 0.36-0.36 0.36h-44.03c-0.1985 0-0.36-0.16118-0.36-0.36v-1.4463c-0.00584-0.20119 0.15881-0.36584 0.36-0.36h44.03c0.20119-0.0058 0.36584 0.15881 0.36 0.36z"/>
 </g>
</svg>
